<svg xmlns="http://www.w3.org/2000/svg" width="21" height="32" aria-hidden="true" style="position:absolute;width:0;height:0;overflow:hidden">
<defs>
<symbol id="icon-logo" viewBox="0 0 21 32">
<path d="M3.758 31.859a1.04 1.04 0 0 1-.497-1.381c0-.001.06-.128.171-.375s.27-.61.462-1.064c.383-.909.896-2.185 1.407-3.644 1.025-2.911 2.029-6.58 2.022-9.377 0-.299-.011-.587-.033-.862-.181-2.339-1.523-5.277-3.015-7.763A48.68 48.68 0 0 0 .55 2.047C.37 1.823.274 1.71.274 1.71A1.038 1.038 0 0 1 1.857.37c.019.023 1.734 2.052 3.526 4.869 1.786 2.828 3.681 6.399 3.973 9.748.027.338.04.682.04 1.031-.007 3.255-1.084 7.037-2.138 10.064a61.27 61.27 0 0 1-2.121 5.28 1.036 1.036 0 0 1-1.379.497zm11.759-.497c-.009-.021-1.062-2.259-2.121-5.28-1.055-3.027-2.132-6.809-2.139-10.063 0-.351.013-.695.041-1.032.292-3.349 2.188-6.92 3.973-9.748C17.064 2.422 18.778.393 18.797.37v.001A1.037 1.037 0 1 1 20.38 1.71s-.096.113-.276.337-.441.552-.755.966a49.81 49.81 0 0 0-2.329 3.34c-1.719 2.682-3.452 6.126-3.656 8.804-.022.276-.034.564-.034.862-.005 2.445.76 5.566 1.641 8.252a62.279 62.279 0 0 0 2.25 5.833c.111.248.171.375.171.375a1.039 1.039 0 0 1-.937 1.48c-.389 0-.762-.221-.939-.596zM9.427 9.216 6.642 4.337a1.035 1.035 0 0 1 .2-1.279L9.628.502a1.034 1.034 0 0 1 1.4 0l2.786 2.556c.358.327.44.857.2 1.279l-2.786 4.879c-.184.322-.53.522-.9.522s-.716-.201-.9-.522zm-.574-5.189 1.474 2.583 1.475-2.584-1.475-1.353-1.475 1.354z"/>
</path>
</defs>
</svg>
